<svg xmlns="http://www.w3.org/2000/svg" width="1800" height="1200" viewBox="0 0 1800 1200">
  <defs>
    <linearGradient id="paper" x1="0" y1="0" x2="1" y2="1">
      <stop offset="0" stop-color="#fffaf0"/>
      <stop offset=".46" stop-color="#f4eadb"/>
      <stop offset="1" stop-color="#e7dece"/>
    </linearGradient>
    <linearGradient id="night" x1="0" y1="0" x2="1" y2="1">
      <stop offset="0" stop-color="#18395c"/>
      <stop offset="1" stop-color="#2d6e48"/>
    </linearGradient>
    <linearGradient id="stamp" x1="0" y1="0" x2="1" y2="1">
      <stop offset="0" stop-color="#d24b60"/>
      <stop offset="1" stop-color="#9e2f3b"/>
    </linearGradient>
    <filter id="softShadow" x="-20%" y="-20%" width="140%" height="140%">
      <feDropShadow dx="0" dy="20" stdDeviation="20" flood-color="#3f2f20" flood-opacity=".16"/>
    </filter>
    <pattern id="ledger" width="84" height="84" patternUnits="userSpaceOnUse">
      <path d="M12 26h58M18 62h48M32 6v72" fill="none" stroke="#8b7355" stroke-opacity=".12" stroke-width="1"/>
      <circle cx="20" cy="20" r="3" fill="#d4a843" fill-opacity=".25"/>
    </pattern>
  </defs>
  <rect width="1800" height="1200" fill="url(#paper)"/>
  <rect width="1800" height="1200" fill="url(#ledger)" opacity=".72"/>
  <path d="M0 920c250-92 412-46 610-126 189-77 371-205 642-158 178 31 317 129 548 75v489H0Z" fill="#1e4d6b" fill-opacity=".08"/>
  <path d="M118 164c170-48 290-50 423-10s266 20 410-58 268-86 398-36" fill="none" stroke="#c23b5e" stroke-opacity=".23" stroke-width="4"/>
  <text x="96" y="118" fill="#18395c" font-family="Avenir Next, Noto Sans, sans-serif" font-size="22" font-weight="700" letter-spacing="7">CANVA APP STUDY</text>
  <text x="96" y="180" fill="#1f211f" font-family="Georgia, Noto Serif JP, serif" font-size="76" font-weight="700">Ledger Atelier</text>
  <text x="100" y="226" fill="#6f6257" font-family="Avenir Next, Noto Sans, sans-serif" font-size="24">Tailor-made visual reference for the travel expense React app</text>

  <g transform="translate(104 294)" filter="url(#softShadow)">
    <rect width="470" height="610" rx="42" fill="#fffdf7" fill-opacity=".9" stroke="#ffffff" stroke-width="3"/>
    <rect x="26" y="26" width="418" height="170" rx="30" fill="url(#night)"/>
    <text x="54" y="78" fill="#f8ead3" font-family="Avenir Next, Noto Sans, sans-serif" font-size="18" font-weight="700" letter-spacing="4">DASHBOARD</text>
    <text x="54" y="138" fill="#ffffff" font-family="Georgia, Noto Serif JP, serif" font-size="46">Command table</text>
    <circle cx="356" cy="111" r="48" fill="#d4a843" fill-opacity=".9"/>
    <path d="M70 246h330M70 314h330M70 382h330" stroke="#18395c" stroke-opacity=".14" stroke-width="2"/>
    <rect x="64" y="228" width="132" height="92" rx="24" fill="#f6e8dc"/>
    <rect x="216" y="228" width="184" height="92" rx="24" fill="#e9f2ef"/>
    <rect x="64" y="348" width="336" height="118" rx="28" fill="#f7efe3"/>
    <path d="M98 405c56-54 108 50 166-2 34-31 55-23 92-4" fill="none" stroke="#c23b5e" stroke-width="5" stroke-linecap="round"/>
    <text x="72" y="538" fill="#8b7355" font-family="Avenir Next, Noto Sans, sans-serif" font-size="18">budget • pending • next action</text>
  </g>

  <g transform="translate(626 294)" filter="url(#softShadow)">
    <rect width="470" height="610" rx="42" fill="#fffdf7" fill-opacity=".9" stroke="#ffffff" stroke-width="3"/>
    <rect x="28" y="28" width="414" height="228" rx="32" fill="#f8ead3"/>
    <circle cx="132" cy="143" r="58" fill="#1e4d6b"/>
    <path d="M112 144h40M132 124v40" stroke="#fffaf0" stroke-width="7" stroke-linecap="round"/>
    <rect x="224" y="84" width="140" height="28" rx="14" fill="#c23b5e" fill-opacity=".9"/>
    <rect x="224" y="138" width="176" height="18" rx="9" fill="#8b7355" fill-opacity=".24"/>
    <rect x="224" y="174" width="104" height="18" rx="9" fill="#8b7355" fill-opacity=".18"/>
    <text x="54" y="320" fill="#18395c" font-family="Georgia, Noto Serif JP, serif" font-size="44">Capture bench</text>
    <rect x="58" y="360" width="150" height="96" rx="26" fill="#18395c"/>
    <rect x="230" y="360" width="150" height="96" rx="26" fill="#2d6e48"/>
    <rect x="58" y="484" width="322" height="52" rx="26" fill="url(#stamp)"/>
    <text x="76" y="562" fill="#8b7355" font-family="Avenir Next, Noto Sans, sans-serif" font-size="18">scan • voice • email • FX</text>
  </g>

  <g transform="translate(1148 294)" filter="url(#softShadow)">
    <rect width="548" height="610" rx="42" fill="#fffdf7" fill-opacity=".9" stroke="#ffffff" stroke-width="3"/>
    <text x="54" y="78" fill="#18395c" font-family="Georgia, Noto Serif JP, serif" font-size="46">Seven screen moods</text>
    <g transform="translate(58 126)">
      <rect width="196" height="92" rx="26" fill="#e9f2ef"/>
      <text x="24" y="54" fill="#2d6e48" font-family="Avenir Next, Noto Sans, sans-serif" font-size="20" font-weight="800">Timeline route</text>
    </g>
    <g transform="translate(294 126)">
      <rect width="196" height="92" rx="26" fill="#eaf4f6"/>
      <text x="24" y="54" fill="#1e4d6b" font-family="Avenir Next, Noto Sans, sans-serif" font-size="20" font-weight="800">Weather window</text>
    </g>
    <g transform="translate(58 250)">
      <rect width="196" height="92" rx="26" fill="#f4e6df"/>
      <text x="24" y="54" fill="#c23b5e" font-family="Avenir Next, Noto Sans, sans-serif" font-size="20" font-weight="800">History archive</text>
    </g>
    <g transform="translate(294 250)">
      <rect width="196" height="92" rx="26" fill="#f5edd6"/>
      <text x="24" y="54" fill="#8b6914" font-family="Avenir Next, Noto Sans, sans-serif" font-size="20" font-weight="800">Stats cockpit</text>
    </g>
    <g transform="translate(58 374)">
      <rect width="432" height="92" rx="26" fill="#ebe8ef"/>
      <text x="24" y="54" fill="#18395c" font-family="Avenir Next, Noto Sans, sans-serif" font-size="20" font-weight="800">Settings secure room</text>
    </g>
    <path d="M84 532h380" stroke="#18395c" stroke-opacity=".18" stroke-width="2"/>
    <text x="84" y="570" fill="#6f6257" font-family="Avenir Next, Noto Sans, sans-serif" font-size="18">static art supports live controls; code remains functional</text>
  </g>
</svg>
